<svg width="168" height="69" viewBox="0 0 168 69" fill="none" xmlns="http://www.w3.org/2000/svg">
<path d="M0.5625 67.5312L12.4688 1.57812C12.5312 1.32812 12.6875 1.20312 12.9375 1.20312H26.8594C27.1094 1.20312 27.2656 1.32812 27.3281 1.57812L38.7656 67.5312C38.7969 67.8438 38.6719 68 38.3906 68H27.75C27.4375 68 27.2656 67.8438 27.2344 67.5312L26.2031 60.5H13.125L12.0938 67.5312C12.0625 67.8438 11.9062 68 11.625 68H0.9375C0.6875 68 0.5625 67.8438 0.5625 67.5312ZM19.3594 23.2812L15.0469 50.2344H24.2812L20.3438 23.2812L19.7812 19.7188L19.3594 23.2812ZM56.0156 68H45.2344C44.9219 68 44.7656 67.8438 44.7656 67.5312L44.9531 1.57812C44.9531 1.32812 45.0781 1.20312 45.3281 1.20312H63.7969C69.6719 1.20312 74.3125 3 77.7188 6.59375C81.1562 10.1562 82.875 15.0156 82.875 21.1719C82.875 25.6719 81.9844 29.5938 80.2031 32.9375C78.3906 36.25 76.0469 38.8125 73.1719 40.625C70.2969 42.4375 67.1719 43.3438 63.7969 43.3438H56.4844V67.5312C56.4844 67.8438 56.3281 68 56.0156 68ZM63.7969 12.5938L56.4844 12.6875V31.7188H63.7969C65.8281 31.7188 67.5938 30.75 69.0938 28.8125C70.5938 26.8438 71.3438 24.2969 71.3438 21.1719C71.3438 18.6719 70.6719 16.625 69.3281 15.0312C67.9844 13.4062 66.1406 12.5938 63.7969 12.5938ZM106.312 68.9375C102.844 68.9375 99.6719 68.0625 96.7969 66.3125C93.9531 64.5625 91.6875 62.2188 90 59.2812C88.3438 56.3125 87.5156 53.0156 87.5156 49.3906L87.6094 19.4375C87.6094 15.875 88.4219 12.6562 90.0469 9.78125C91.6719 6.875 93.9062 4.54688 96.75 2.79688C99.625 1.01562 102.812 0.125 106.312 0.125C109.875 0.125 113.047 0.984375 115.828 2.70312C118.641 4.42188 120.875 6.75 122.531 9.6875C124.219 12.5938 125.062 15.8438 125.062 19.4375V23.8438C125.062 24.0938 124.938 24.2188 124.688 24.2188H113.906C113.656 24.2188 113.531 24.0938 113.531 23.8438V19.4375C113.531 17.3125 112.844 15.4844 111.469 13.9531C110.094 12.4219 108.375 11.6562 106.312 11.6562C104.031 11.6562 102.281 12.4375 101.062 14C99.8438 15.5625 99.2344 17.375 99.2344 19.4375V49.3906C99.2344 51.7344 99.9219 53.6562 101.297 55.1562C102.672 56.625 104.344 57.3594 106.312 57.3594C108.375 57.3594 110.094 56.5469 111.469 54.9219C112.844 53.2656 113.531 51.4219 113.531 49.3906V44.9375C113.531 44.6875 113.656 44.5625 113.906 44.5625H124.781C125.031 44.5625 125.156 44.6875 125.156 44.9375V49.3906C125.156 52.9844 124.312 56.2656 122.625 59.2344C120.906 62.1719 118.641 64.5312 115.828 66.3125C113.016 68.0625 109.844 68.9375 106.312 68.9375ZM128.906 67.5312L140.812 1.57812C140.875 1.32812 141.031 1.20312 141.281 1.20312H155.203C155.453 1.20312 155.609 1.32812 155.672 1.57812L167.109 67.5312C167.141 67.8438 167.016 68 166.734 68H156.094C155.781 68 155.609 67.8438 155.578 67.5312L154.547 60.5H141.469L140.438 67.5312C140.406 67.8438 140.25 68 139.969 68H129.281C129.031 68 128.906 67.8438 128.906 67.5312ZM147.703 23.2812L143.391 50.2344H152.625L148.688 23.2812L148.125 19.7188L147.703 23.2812Z" fill="black"/>
</svg>
