<svg width="286" height="113" viewBox="0 0 286 113" fill="none" xmlns="http://www.w3.org/2000/svg">
<path d="M59.5541 41L59.9861 39.92L64.1861 39.008L77.7461 6.416L74.0501 5.504L74.4821 4.448H85.8821C89.3381 4.448 92.0181 5.176 93.9221 6.632C95.8421 8.088 96.8021 10.136 96.8021 12.776C96.8021 15.176 96.0901 17.28 94.6661 19.088C93.2581 20.896 91.2821 22.304 88.7381 23.312C86.2101 24.304 83.2501 24.8 79.8581 24.8H75.1781L69.3941 39.008L75.0341 39.92L74.6021 41H59.5541ZM76.0901 22.712H80.5061C82.6021 22.712 84.5061 22.24 86.2181 21.296C87.9461 20.336 89.3221 19.056 90.3461 17.456C91.3701 15.84 91.8821 14.064 91.8821 12.128C91.8821 10.272 91.3701 8.848 90.3461 7.856C89.3221 6.864 87.8341 6.368 85.8821 6.368H82.9781L76.0901 22.712ZM92.4937 41L101.662 19.808C101.79 19.472 101.91 19.152 102.022 18.848C102.134 18.544 102.19 18.28 102.19 18.056C102.19 17.672 101.974 17.48 101.542 17.48C101.19 17.48 100.734 17.656 100.174 18.008C99.6138 18.344 99.0058 18.816 98.3498 19.424C97.7098 20.016 97.0698 20.712 96.4298 21.512L95.5418 20.768C96.8058 19.152 98.2138 17.848 99.7658 16.856C101.318 15.848 102.742 15.344 104.038 15.344C104.694 15.344 105.222 15.552 105.622 15.968C106.038 16.368 106.246 16.968 106.246 17.768C106.246 18.408 106.11 19.088 105.838 19.808C105.566 20.528 105.03 21.552 104.23 22.88L104.446 22.952C106.094 20.264 107.654 18.328 109.126 17.144C110.614 15.944 112.134 15.344 113.686 15.344C114.71 15.344 115.558 15.584 116.23 16.064C116.902 16.544 117.238 17.192 117.238 18.008C117.238 18.648 117.054 19.168 116.686 19.568C116.334 19.952 115.822 20.144 115.15 20.144C114.542 20.144 114.086 20 113.782 19.712C113.478 19.424 113.182 19.144 112.894 18.872C112.606 18.584 112.166 18.44 111.574 18.44C110.902 18.44 110.198 18.72 109.462 19.28C108.742 19.84 107.974 20.68 107.158 21.8C106.342 22.904 105.462 24.296 104.518 25.976C103.59 27.64 102.59 29.584 101.518 31.808L97.1018 41H92.4937ZM119.036 41.504C117.068 41.504 115.54 40.944 114.452 39.824C113.38 38.688 112.844 37.096 112.844 35.048C112.844 33.304 113.22 31.512 113.972 29.672C114.74 27.832 115.772 26.064 117.068 24.368C118.364 22.656 119.828 21.12 121.46 19.76C123.092 18.4 124.788 17.328 126.548 16.544C128.324 15.744 130.052 15.344 131.732 15.344C133.14 15.344 134.252 15.632 135.068 16.208C135.884 16.784 136.292 17.584 136.292 18.608C136.292 19.936 135.604 21.232 134.228 22.496C132.868 23.76 130.972 24.896 128.54 25.904C126.124 26.896 123.332 27.672 120.164 28.232C119.252 29.912 118.572 31.464 118.124 32.888C117.676 34.296 117.452 35.544 117.452 36.632C117.452 38.744 118.372 39.8 120.212 39.8C121.188 39.8 122.252 39.536 123.404 39.008C124.572 38.464 125.724 37.72 126.86 36.776C128.012 35.816 129.052 34.712 129.98 33.464L131.012 34.112C129.076 36.56 127.092 38.408 125.06 39.656C123.044 40.888 121.036 41.504 119.036 41.504ZM121.22 26.624C123.188 26.24 125.028 25.6 126.74 24.704C128.468 23.792 129.86 22.76 130.916 21.608C131.988 20.456 132.524 19.336 132.524 18.248C132.524 17.288 132.004 16.808 130.964 16.808C130.116 16.808 129.188 17.12 128.18 17.744C127.172 18.352 126.188 19.184 125.228 20.24C124.268 21.296 123.428 22.504 122.708 23.864L121.22 26.624ZM126.524 11.192L125.636 10.592L133.748 1.664C134.564 0.751998 135.636 0.295998 136.964 0.295998C137.652 0.295998 138.124 0.407998 138.38 0.631999C138.652 0.855998 138.812 1.2 138.86 1.664L139.604 10.592L138.5 11.192L135.188 4.496L126.524 11.192ZM164.793 41.504C162.921 41.504 161.985 40.672 161.985 39.008C161.985 38.384 162.113 37.624 162.369 36.728C162.641 35.832 163.073 34.76 163.665 33.512L169.593 20.72C170.137 19.568 170.345 18.664 170.217 18.008C170.089 17.336 169.633 17 168.849 17C168.257 17 167.585 17.24 166.833 17.72C166.081 18.184 165.289 18.856 164.457 19.736C163.625 20.6 162.777 21.624 161.913 22.808C161.065 23.976 160.233 25.272 159.417 26.696C158.617 28.12 157.865 29.616 157.161 31.184L152.793 41H147.657L156.969 20.72C157.161 20.288 157.313 19.872 157.425 19.472C157.553 19.056 157.617 18.712 157.617 18.44C157.617 17.48 157.097 17 156.057 17C155.449 17 154.769 17.24 154.017 17.72C153.265 18.184 152.473 18.856 151.641 19.736C150.809 20.6 149.953 21.648 149.073 22.88C148.209 24.096 147.345 25.456 146.481 26.96C145.617 28.464 144.785 30.08 143.985 31.808L139.665 41H135.057L144.177 19.808C144.561 19.024 144.737 18.44 144.705 18.056C144.689 17.672 144.457 17.48 144.009 17.48C143.625 17.48 143.153 17.656 142.593 18.008C142.049 18.344 141.465 18.816 140.841 19.424C140.233 20.016 139.633 20.712 139.041 21.512L138.057 20.768C139.289 19.104 140.713 17.784 142.329 16.808C143.961 15.832 145.537 15.344 147.057 15.344C147.825 15.344 148.393 15.504 148.761 15.824C149.129 16.128 149.313 16.608 149.313 17.264C149.313 17.888 149.145 18.64 148.809 19.52C148.489 20.384 147.945 21.504 147.177 22.88L147.441 22.952C149.297 20.264 151.009 18.336 152.577 17.168C154.145 15.984 155.785 15.392 157.497 15.392C158.761 15.392 159.721 15.688 160.377 16.28C161.033 16.856 161.361 17.72 161.361 18.872C161.361 20.152 160.945 21.488 160.113 22.88L160.281 22.952C161.993 20.328 163.649 18.416 165.249 17.216C166.865 16 168.529 15.392 170.241 15.392C171.585 15.392 172.601 15.752 173.289 16.472C173.993 17.192 174.345 18.232 174.345 19.592C174.345 20.248 174.257 20.912 174.081 21.584C173.921 22.24 173.633 23.008 173.217 23.888L168.105 35.24C167.481 36.6 167.153 37.512 167.121 37.976C167.105 38.44 167.353 38.672 167.865 38.672C168.393 38.672 169.145 38.288 170.121 37.52C171.113 36.736 172.177 35.696 173.313 34.4L174.297 35.12C172.697 37.184 171.081 38.768 169.449 39.872C167.817 40.96 166.265 41.504 164.793 41.504ZM180.217 41.504C179.289 41.504 178.537 41.28 177.961 40.832C177.401 40.384 177.121 39.712 177.121 38.816C177.121 38.416 177.169 37.96 177.265 37.448C177.377 36.92 177.569 36.352 177.841 35.744L185.545 18.8C185.641 18.592 185.705 18.424 185.737 18.296C185.769 18.152 185.785 18.024 185.785 17.912C185.785 17.624 185.585 17.48 185.185 17.48C184.625 17.48 183.961 17.744 183.193 18.272C182.441 18.8 181.705 19.52 180.985 20.432L179.905 19.592C180.993 18.264 182.241 17.224 183.649 16.472C185.073 15.72 186.417 15.344 187.681 15.344C188.561 15.344 189.289 15.544 189.865 15.944C190.457 16.344 190.753 16.92 190.753 17.672C190.753 18.12 190.689 18.616 190.561 19.16C190.449 19.704 190.265 20.256 190.009 20.816L182.377 37.136C182.313 37.248 182.273 37.36 182.257 37.472C182.241 37.568 182.233 37.664 182.233 37.76C182.233 38.368 182.545 38.672 183.169 38.672C183.617 38.672 184.169 38.424 184.825 37.928C185.481 37.416 186.585 36.392 188.137 34.856L189.121 35.456C187.633 37.328 186.073 38.808 184.441 39.896C182.809 40.968 181.401 41.504 180.217 41.504ZM190.657 9.872C189.745 9.872 189.025 9.632 188.497 9.152C187.969 8.656 187.705 8 187.705 7.184C187.705 6.304 188.057 5.544 188.761 4.904C189.465 4.264 190.265 3.944 191.161 3.944C191.977 3.944 192.689 4.192 193.297 4.688C193.921 5.184 194.233 5.808 194.233 6.56C194.233 7.12 194.057 7.656 193.705 8.168C193.369 8.664 192.929 9.072 192.385 9.392C191.841 9.712 191.265 9.872 190.657 9.872ZM200.001 41.504C197.745 41.504 196.009 40.8 194.793 39.392C193.577 37.968 192.969 36.048 192.969 33.632C192.969 31.936 193.289 30.224 193.929 28.496C194.585 26.768 195.473 25.12 196.593 23.552C197.729 21.984 199.009 20.584 200.433 19.352C201.873 18.12 203.393 17.144 204.993 16.424C206.593 15.704 208.177 15.344 209.745 15.344C212.001 15.344 213.745 16.048 214.977 17.456C216.209 18.848 216.825 20.744 216.825 23.144C216.825 24.856 216.497 26.584 215.841 28.328C215.185 30.056 214.289 31.712 213.153 33.296C212.033 34.864 210.753 36.272 209.313 37.52C207.873 38.752 206.353 39.728 204.753 40.448C203.153 41.152 201.569 41.504 200.001 41.504ZM199.449 39.8C200.393 39.8 201.449 39.36 202.617 38.48C203.785 37.584 204.953 36.408 206.121 34.952C207.289 33.496 208.361 31.896 209.337 30.152C210.329 28.408 211.121 26.672 211.713 24.944C212.305 23.216 212.601 21.648 212.601 20.24C212.601 19.184 212.417 18.384 212.049 17.84C211.697 17.28 211.113 17 210.297 17C209.305 17 208.225 17.424 207.057 18.272C205.889 19.12 204.729 20.256 203.577 21.68C202.425 23.088 201.377 24.648 200.433 26.36C199.489 28.056 198.729 29.776 198.153 31.52C197.593 33.264 197.313 34.88 197.313 36.368C197.313 37.488 197.481 38.344 197.817 38.936C198.153 39.512 198.697 39.8 199.449 39.8ZM32.1315 70.48L12.3315 93.496C11.5955 94.36 11.0835 95.008 10.7955 95.44C10.5235 95.856 10.3875 96.264 10.3875 96.664C10.3875 97.176 10.6835 97.632 11.2755 98.032C11.8835 98.432 12.9075 98.728 14.3475 98.92L13.8435 100H0.1395L0.6675 98.92C1.7235 98.76 2.6515 98.56 3.4515 98.32C4.2355 98.08 4.9555 97.76 5.6115 97.36C6.2675 96.944 6.9235 96.416 7.5795 95.776C8.2355 95.136 8.9715 94.344 9.7875 93.4L32.8755 66.544L32.1315 70.48ZM29.7795 86.44H17.6595L19.1475 84.664H30.0435L29.7795 86.44ZM31.7475 69.136L32.4195 63.448L37.2675 62.344L32.9475 95.632C32.8035 96.704 32.9715 97.488 33.4515 97.984C33.9475 98.48 35.0675 98.792 36.8115 98.92L36.2595 100H21.9075L22.4595 98.92C23.7555 98.904 24.7955 98.768 25.5795 98.512C26.3635 98.24 26.9555 97.816 27.3555 97.24C27.7555 96.664 28.0195 95.92 28.1475 95.008L31.7475 69.136ZM46.2908 100.504C44.5948 100.504 43.3068 99.984 42.4268 98.944C41.5628 97.904 41.1308 96.36 41.1308 94.312C41.1308 92.536 41.4588 90.72 42.1148 88.864C42.7868 86.992 43.6908 85.192 44.8268 83.464C45.9787 81.736 47.2828 80.192 48.7388 78.832C50.2108 77.456 51.7548 76.368 53.3708 75.568C54.9868 74.752 56.5868 74.344 58.1708 74.344C59.0828 74.344 59.8428 74.52 60.4508 74.872C61.0588 75.208 61.6588 75.776 62.2508 76.576L67.7468 62.344L64.0748 61.744L63.8588 61.072H72.9068L60.1628 94.816C59.7948 95.824 59.6348 96.552 59.6828 97C59.7468 97.448 60.0188 97.672 60.4988 97.672C60.8348 97.672 61.2188 97.528 61.6508 97.24C62.0988 96.936 62.6348 96.472 63.2588 95.848C63.8828 95.224 64.6348 94.424 65.5148 93.448L66.4508 94.12C64.9148 96.2 63.4108 97.784 61.9388 98.872C60.4828 99.96 59.0828 100.504 57.7388 100.504C56.7148 100.504 55.9788 100.216 55.5308 99.64C55.0828 99.048 54.8588 98.192 54.8588 97.072C54.8588 96.512 54.9788 95.904 55.2188 95.248C55.4588 94.576 55.8028 93.8 56.2508 92.92L56.1308 92.752C54.2428 95.552 52.5548 97.544 51.0668 98.728C49.5948 99.912 48.0028 100.504 46.2908 100.504ZM47.1788 98.8C47.9788 98.8 48.9228 98.368 50.0108 97.504C51.0988 96.624 52.2428 95.424 53.4427 93.904C54.6428 92.368 55.8108 90.608 56.9468 88.624C58.0988 86.64 59.1308 84.536 60.0428 82.312C60.4748 81.224 60.7708 80.392 60.9308 79.816C61.1068 79.24 61.2028 78.72 61.2188 78.256C60.9948 76.672 60.2508 75.88 58.9868 75.88C58.0268 75.88 56.9468 76.352 55.7468 77.296C54.5628 78.24 53.3628 79.48 52.1468 81.016C50.9308 82.552 49.8108 84.232 48.7868 86.056C47.7788 87.864 46.9628 89.656 46.3388 91.432C45.7148 93.192 45.4028 94.76 45.4028 96.136C45.4028 97.064 45.5628 97.744 45.8828 98.176C46.2188 98.592 46.6508 98.8 47.1788 98.8ZM75.9229 100.504C73.6669 100.504 71.9309 99.8 70.7149 98.392C69.4989 96.968 68.8909 95.048 68.8909 92.632C68.8909 90.936 69.2109 89.224 69.8509 87.496C70.5069 85.768 71.3949 84.12 72.5149 82.552C73.6509 80.984 74.9309 79.584 76.3549 78.352C77.7949 77.12 79.3149 76.144 80.9149 75.424C82.5149 74.704 84.0989 74.344 85.6669 74.344C87.9229 74.344 89.6669 75.048 90.8989 76.456C92.1309 77.848 92.7469 79.744 92.7469 82.144C92.7469 83.856 92.4189 85.584 91.7629 87.328C91.1069 89.056 90.2109 90.712 89.0749 92.296C87.9549 93.864 86.6749 95.272 85.2349 96.52C83.7949 97.752 82.2749 98.728 80.6749 99.448C79.0749 100.152 77.4909 100.504 75.9229 100.504ZM75.3709 98.8C76.3149 98.8 77.3709 98.36 78.5389 97.48C79.7069 96.584 80.8749 95.408 82.0429 93.952C83.2109 92.496 84.2829 90.896 85.2589 89.152C86.2509 87.408 87.0429 85.672 87.6349 83.944C88.2269 82.216 88.5229 80.648 88.5229 79.24C88.5229 78.184 88.3389 77.384 87.9709 76.84C87.6189 76.28 87.0349 76 86.2189 76C85.2269 76 84.1469 76.424 82.9789 77.272C81.8109 78.12 80.6509 79.256 79.4989 80.68C78.3469 82.088 77.2989 83.648 76.3549 85.36C75.4109 87.056 74.6509 88.776 74.0749 90.52C73.5149 92.264 73.2349 93.88 73.2349 95.368C73.2349 96.488 73.4029 97.344 73.7389 97.936C74.0749 98.512 74.6189 98.8 75.3709 98.8ZM96.6701 100.504C95.9181 100.504 95.3261 100.232 94.8941 99.688C94.4621 99.144 94.2461 98.416 94.2461 97.504C94.2461 97.168 94.2941 96.776 94.3901 96.328C94.5021 95.864 94.6941 95.232 94.9661 94.432C95.2541 93.616 95.6701 92.528 96.2141 91.168C96.7741 89.792 97.5021 88.024 98.3981 85.864C99.2941 83.704 100.406 81.04 101.734 77.872L108.238 62.344L104.614 61.744L104.494 61.072H113.926L103.414 85.528C102.23 88.296 101.318 90.432 100.678 91.936C100.038 93.44 99.5981 94.544 99.3581 95.248C99.1181 95.936 98.9981 96.464 98.9981 96.832C98.9981 97.072 99.1021 97.272 99.3101 97.432C99.5341 97.592 99.7581 97.672 99.9821 97.672C100.238 97.672 100.558 97.584 100.942 97.408C101.342 97.216 101.862 96.848 102.502 96.304C103.142 95.76 103.974 94.944 104.998 93.856L106.054 94.456C104.454 96.392 102.806 97.888 101.11 98.944C99.4301 99.984 97.9501 100.504 96.6701 100.504ZM116.853 90.352C115.189 95.152 113.365 99.168 111.381 102.4C109.413 105.632 107.269 108.064 104.949 109.696C102.629 111.344 100.109 112.168 97.3886 112.168C96.2846 112.168 95.3486 112.008 94.5806 111.688C93.7966 111.368 93.2046 110.92 92.8046 110.344C92.4046 109.784 92.2046 109.136 92.2046 108.4C92.2046 107.696 92.4046 107.112 92.8046 106.648C93.2046 106.2 93.7486 105.976 94.4366 105.976C95.0766 105.976 95.5566 106.128 95.8766 106.432C96.1966 106.752 96.4366 107.136 96.5966 107.584C96.7406 108.032 96.8846 108.48 97.0286 108.928C97.1566 109.392 97.3406 109.776 97.5806 110.08C97.8206 110.4 98.1886 110.56 98.6846 110.56C99.9166 110.56 101.237 109.816 102.645 108.328C104.053 106.856 105.461 104.808 106.869 102.184C108.261 99.576 109.549 96.584 110.733 93.208L117.669 73.528C118.677 70.68 119.901 68.296 121.341 66.376C122.781 64.456 124.437 63.008 126.309 62.032C128.197 61.056 130.309 60.568 132.645 60.568C134.693 60.568 136.381 61.032 137.709 61.96C139.037 62.888 139.701 64.072 139.701 65.512C139.701 66.2 139.493 66.76 139.077 67.192C138.677 67.608 138.117 67.816 137.397 67.816C136.805 67.816 136.285 67.624 135.837 67.24C135.405 66.84 135.189 66.328 135.189 65.704C135.189 65.256 135.245 64.872 135.357 64.552C135.469 64.216 135.525 63.872 135.525 63.52C135.525 63.04 135.285 62.672 134.805 62.416C134.341 62.144 133.661 62.008 132.765 62.008C131.325 62.008 130.005 62.424 128.805 63.256C127.621 64.088 126.525 65.352 125.517 67.048C124.509 68.744 123.557 70.904 122.661 73.528L116.853 90.352ZM127.341 74.824L126.741 76.36H112.725L113.301 74.824H127.341ZM130.485 100.504C128.229 100.504 126.493 99.8 125.277 98.392C124.061 96.968 123.453 95.048 123.453 92.632C123.453 90.936 123.773 89.224 124.413 87.496C125.069 85.768 125.957 84.12 127.077 82.552C128.213 80.984 129.493 79.584 130.917 78.352C132.357 77.12 133.877 76.144 135.477 75.424C137.077 74.704 138.661 74.344 140.229 74.344C142.485 74.344 144.229 75.048 145.461 76.456C146.693 77.848 147.309 79.744 147.309 82.144C147.309 83.856 146.981 85.584 146.325 87.328C145.669 89.056 144.773 90.712 143.637 92.296C142.517 93.864 141.237 95.272 139.797 96.52C138.357 97.752 136.837 98.728 135.237 99.448C133.637 100.152 132.053 100.504 130.485 100.504ZM129.933 98.8C130.877 98.8 131.933 98.36 133.101 97.48C134.269 96.584 135.437 95.408 136.605 93.952C137.773 92.496 138.845 90.896 139.821 89.152C140.813 87.408 141.605 85.672 142.197 83.944C142.789 82.216 143.085 80.648 143.085 79.24C143.085 78.184 142.901 77.384 142.533 76.84C142.181 76.28 141.597 76 140.781 76C139.789 76 138.709 76.424 137.541 77.272C136.373 78.12 135.213 79.256 134.061 80.68C132.909 82.088 131.861 83.648 130.917 85.36C129.973 87.056 129.213 88.776 128.637 90.52C128.077 92.264 127.797 93.88 127.797 95.368C127.797 96.488 127.965 97.344 128.301 97.936C128.637 98.512 129.181 98.8 129.933 98.8ZM187.85 70.48L168.05 93.496C167.314 94.36 166.802 95.008 166.514 95.44C166.242 95.856 166.106 96.264 166.106 96.664C166.106 97.176 166.402 97.632 166.994 98.032C167.602 98.432 168.626 98.728 170.066 98.92L169.562 100H155.858L156.386 98.92C157.442 98.76 158.37 98.56 159.17 98.32C159.954 98.08 160.674 97.76 161.33 97.36C161.986 96.944 162.642 96.416 163.298 95.776C163.954 95.136 164.69 94.344 165.506 93.4L188.594 66.544L187.85 70.48ZM185.498 86.44H173.378L174.866 84.664H185.762L185.498 86.44ZM187.466 69.136L188.138 63.448L192.986 62.344L188.666 95.632C188.522 96.704 188.69 97.488 189.17 97.984C189.666 98.48 190.786 98.792 192.53 98.92L191.978 100H177.626L178.178 98.92C179.474 98.904 180.514 98.768 181.298 98.512C182.082 98.24 182.674 97.816 183.074 97.24C183.474 96.664 183.738 95.92 183.866 95.008L187.466 69.136ZM198.92 100.504C197.992 100.504 197.24 100.28 196.664 99.832C196.104 99.384 195.824 98.712 195.824 97.816C195.824 97.416 195.872 96.96 195.968 96.448C196.08 95.92 196.272 95.352 196.544 94.744L204.248 77.8C204.344 77.592 204.408 77.424 204.44 77.296C204.472 77.152 204.488 77.024 204.488 76.912C204.488 76.624 204.288 76.48 203.888 76.48C203.328 76.48 202.664 76.744 201.896 77.272C201.144 77.8 200.408 78.52 199.688 79.432L198.608 78.592C199.696 77.264 200.944 76.224 202.352 75.472C203.776 74.72 205.12 74.344 206.384 74.344C207.264 74.344 207.992 74.544 208.568 74.944C209.16 75.344 209.456 75.92 209.456 76.672C209.456 77.12 209.392 77.616 209.264 78.16C209.152 78.704 208.968 79.256 208.712 79.816L201.08 96.136C201.016 96.248 200.976 96.36 200.96 96.472C200.944 96.568 200.936 96.664 200.936 96.76C200.936 97.368 201.248 97.672 201.872 97.672C202.32 97.672 202.872 97.424 203.528 96.928C204.184 96.416 205.288 95.392 206.84 93.856L207.824 94.456C206.336 96.328 204.776 97.808 203.144 98.896C201.512 99.968 200.104 100.504 198.92 100.504ZM209.36 68.872C208.448 68.872 207.728 68.632 207.2 68.152C206.672 67.656 206.408 67 206.408 66.184C206.408 65.304 206.76 64.544 207.464 63.904C208.168 63.264 208.968 62.944 209.864 62.944C210.68 62.944 211.392 63.192 212 63.688C212.624 64.184 212.936 64.808 212.936 65.56C212.936 66.12 212.76 66.656 212.408 67.168C212.072 67.664 211.632 68.072 211.088 68.392C210.544 68.712 209.968 68.872 209.36 68.872ZM208.617 100.504L207.513 99.568L230.697 79.576L230.625 79.384C229.489 79.384 228.273 79.296 226.977 79.12C225.697 78.944 224.457 78.768 223.257 78.592C222.057 78.416 221.009 78.328 220.113 78.328C218.849 78.328 217.897 78.544 217.257 78.976C216.617 79.408 216.297 80.024 216.297 80.824C216.297 81.864 216.841 82.488 217.929 82.696L217.977 82.504C217.737 82.376 217.537 82.216 217.377 82.024C217.217 81.832 217.137 81.6 217.137 81.328C217.137 80.848 217.305 80.448 217.641 80.128C217.993 79.792 218.441 79.624 218.985 79.624C219.577 79.624 220.041 79.808 220.377 80.176C220.713 80.544 220.881 81.024 220.881 81.616C220.881 82.288 220.649 82.832 220.185 83.248C219.737 83.664 219.161 83.872 218.457 83.872C217.305 83.872 216.385 83.504 215.697 82.768C215.025 82.032 214.689 81.064 214.689 79.864C214.689 78.184 215.457 76.816 216.993 75.76C218.545 74.688 220.553 74.152 223.017 74.152C224.185 74.152 225.457 74.256 226.833 74.464C228.209 74.672 229.521 74.888 230.769 75.112C232.033 75.32 233.049 75.424 233.817 75.424C234.441 75.424 235.041 75.344 235.617 75.184C236.209 75.024 236.817 74.744 237.441 74.344L238.449 75.232L215.193 95.296L215.289 95.488C217.161 95.488 219.025 95.664 220.881 96.016C222.737 96.368 224.337 96.544 225.681 96.544C226.961 96.544 227.913 96.328 228.537 95.896C229.161 95.448 229.473 94.832 229.473 94.048C229.473 93.008 228.937 92.384 227.865 92.176L227.793 92.368C228.049 92.512 228.257 92.68 228.417 92.872C228.577 93.064 228.657 93.296 228.657 93.568C228.657 94.032 228.489 94.432 228.153 94.768C227.817 95.088 227.369 95.248 226.809 95.248C226.217 95.248 225.745 95.072 225.393 94.72C225.057 94.368 224.889 93.896 224.889 93.304C224.889 92.648 225.121 92.104 225.585 91.672C226.049 91.24 226.633 91.024 227.337 91.024C228.457 91.024 229.361 91.392 230.049 92.128C230.737 92.864 231.081 93.832 231.081 95.032C231.081 96.76 230.321 98.136 228.801 99.16C227.297 100.168 225.289 100.672 222.777 100.672C221.689 100.672 220.449 100.568 219.057 100.36C217.681 100.152 216.361 99.952 215.097 99.76C213.849 99.552 212.865 99.448 212.145 99.448C211.537 99.448 210.945 99.536 210.369 99.712C209.777 99.872 209.193 100.136 208.617 100.504ZM242.364 100.504C240.396 100.504 238.868 99.944 237.78 98.824C236.708 97.688 236.172 96.096 236.172 94.048C236.172 92.304 236.548 90.512 237.3 88.672C238.068 86.832 239.1 85.064 240.396 83.368C241.692 81.656 243.156 80.12 244.788 78.76C246.42 77.4 248.116 76.328 249.876 75.544C251.652 74.744 253.38 74.344 255.06 74.344C256.468 74.344 257.58 74.632 258.396 75.208C259.212 75.784 259.62 76.584 259.62 77.608C259.62 78.936 258.932 80.232 257.556 81.496C256.196 82.76 254.3 83.896 251.868 84.904C249.452 85.896 246.66 86.672 243.492 87.232C242.58 88.912 241.9 90.464 241.452 91.888C241.004 93.296 240.78 94.544 240.78 95.632C240.78 97.744 241.7 98.8 243.54 98.8C244.516 98.8 245.58 98.536 246.732 98.008C247.9 97.464 249.052 96.72 250.188 95.776C251.34 94.816 252.38 93.712 253.308 92.464L254.34 93.112C252.404 95.56 250.42 97.408 248.388 98.656C246.372 99.888 244.364 100.504 242.364 100.504ZM244.548 85.624C246.516 85.24 248.356 84.6 250.068 83.704C251.796 82.792 253.188 81.76 254.244 80.608C255.316 79.456 255.852 78.336 255.852 77.248C255.852 76.288 255.332 75.808 254.292 75.808C253.444 75.808 252.516 76.12 251.508 76.744C250.5 77.352 249.516 78.184 248.556 79.24C247.596 80.296 246.756 81.504 246.036 82.864L244.548 85.624ZM275.642 100.504C273.77 100.504 272.834 99.656 272.834 97.96C272.834 96.6 273.41 94.784 274.562 92.512L281.018 79.72C281.194 79.384 281.338 79.008 281.45 78.592C281.562 78.176 281.618 77.792 281.618 77.44C281.618 76.48 281.114 76 280.106 76C279.466 76 278.746 76.24 277.946 76.72C277.146 77.2 276.306 77.88 275.426 78.76C274.546 79.64 273.642 80.696 272.714 81.928C271.802 83.144 270.898 84.504 270.002 86.008C269.106 87.496 268.25 89.096 267.434 90.808L262.994 100H258.385L267.506 78.808C267.874 77.976 268.058 77.44 268.058 77.2C268.058 76.72 267.826 76.48 267.362 76.48C267.01 76.48 266.562 76.648 266.018 76.984C265.49 77.32 264.906 77.792 264.266 78.4C263.642 79.008 263.01 79.712 262.37 80.512L261.386 79.768C262.618 78.104 264.042 76.784 265.658 75.808C267.29 74.832 268.866 74.344 270.386 74.344C271.89 74.344 272.642 74.984 272.642 76.264C272.642 76.904 272.482 77.648 272.161 78.496C271.858 79.328 271.33 80.456 270.578 81.88L270.77 81.952C272.802 79.264 274.65 77.336 276.314 76.168C277.978 74.984 279.682 74.392 281.426 74.392C284.306 74.392 285.746 75.768 285.746 78.52C285.746 79.88 285.362 81.336 284.594 82.888L279.002 94.24C278.73 94.816 278.506 95.36 278.33 95.872C278.154 96.368 278.066 96.752 278.066 97.024C278.066 97.456 278.258 97.672 278.642 97.672C279.202 97.672 279.962 97.304 280.922 96.568C281.882 95.816 282.97 94.76 284.186 93.4L285.194 94.12C283.498 96.216 281.85 97.808 280.25 98.896C278.65 99.968 277.114 100.504 275.642 100.504Z" fill="black"/>
</svg>
